<svg width="64" height="68" viewBox="0 0 64 68" fill="none" xmlns="http://www.w3.org/2000/svg">
<path fill-rule="evenodd" clip-rule="evenodd" d="M32 58.32C45.4316 58.32 56.32 47.4316 56.32 34C56.32 20.5684 45.4316 9.68 32 9.68C18.5684 9.68 7.68 20.5684 7.68 34C7.68 47.4316 18.5684 58.32 32 58.32ZM32 66C49.6731 66 64 51.6731 64 34C64 16.3269 49.6731 2 32 2C14.3269 2 0 16.3269 0 34C0 51.6731 14.3269 66 32 66Z" fill="#0083BE"/>
<path fill-rule="evenodd" clip-rule="evenodd" d="M32 58.32C45.4316 58.32 56.32 47.4316 56.32 34C56.32 20.5684 45.4316 9.68 32 9.68C18.5684 9.68 7.68 20.5684 7.68 34C7.68 47.4316 18.5684 58.32 32 58.32ZM32 66C49.6731 66 64 51.6731 64 34C64 16.3269 49.6731 2 32 2C14.3269 2 0 16.3269 0 34C0 51.6731 14.3269 66 32 66Z" fill="#0083BE"/>
<circle cx="27.52" cy="20.56" r="7.04" fill="#0083BE"/>
<circle cx="41.6" cy="33.36" r="7.04" fill="#0083BE"/>
<circle cx="27.52" cy="47.44" r="7.04" fill="#0083BE"/>
</svg>
